<?xml version="1.0" encoding="utf-8"?>
<!-- Generator: Adobe Illustrator 15.0.0, SVG Export Plug-In . SVG Version: 6.00 Build 0)  -->
<!DOCTYPE svg PUBLIC "-//W3C//DTD SVG 1.1//EN" "http://www.w3.org/Graphics/SVG/1.1/DTD/svg11.dtd">
<svg version="1.1" xmlns="http://www.w3.org/2000/svg" xmlns:xlink="http://www.w3.org/1999/xlink" x="0px" y="0px" width="1280px"
	 height="720px" viewBox="0 0 1280 720" enable-background="new 0 0 1280 720" xml:space="preserve">
<g id="Repères_du_plan_de_travail">
</g>
<g id="Shadows">
	<path opacity="0.2" fill="#061E2B" d="M826.587,510.033c9.438-0.286,22.391,1.177,23.413,4.779c1,3.521-11.755,4.688-31.741,4.688
		C806.247,519.5,826.587,510.033,826.587,510.033"/>
	<path opacity="0.2" fill="#061E2B" d="M676.334,444.549c0,0,49.626,0,68.979,0s95.02,21.118,31.735,21.118
		c-34.382,0-100.715,0.333-100.715,0.333V444.549"/>
	<path opacity="0.2" fill="#061E2B" d="M721,484c0,0-2,0,3.5,0c12.375,0,45.75,35.5,24.375,35.5c-21.711,0-18.375,0-18.375,0
		L721,484z"/>
</g>
<g id="Computer">
	<g>
		<rect x="603.795" y="416.376" fill="#29ABE2" width="72.038" height="26.124"/>
		<path fill="#093747" d="M674.333,417.876V441h-69.038v-23.124H674.333 M677.333,414.876h-3h-69.038h-3v3V441v3h3h69.038h3v-3
			v-23.124V414.876L677.333,414.876z"/>
	</g>
	<g>
		<path fill="#29ABE2" d="M596,460.833c-0.521,0-1.005-0.271-1.278-0.715s-0.295-0.998-0.06-1.464l9.295-18.333
			c0.255-0.504,0.773-0.821,1.338-0.821h69.038c0.541,0,1.041,0.292,1.307,0.764l10.334,18.333c0.262,0.464,0.258,1.032-0.012,1.493
			c-0.269,0.46-0.762,0.743-1.295,0.743H596z"/>
		<path fill="#093747" d="M674.333,441l10.334,18.333H596L605.295,441H674.333 M674.333,438h-69.038
			c-1.13,0-2.165,0.635-2.676,1.644l-9.295,18.333c-0.472,0.93-0.426,2.038,0.12,2.927c0.545,0.889,1.513,1.43,2.556,1.43h88.667
			c1.066,0,2.053-0.566,2.591-1.486c0.537-0.921,0.546-2.058,0.022-2.987l-10.334-18.332C676.415,438.584,675.416,438,674.333,438
			L674.333,438z"/>
	</g>
	<g>
		<path fill="#29ABE2" d="M596,464.833c-0.829,0-1.5-0.672-1.5-1.5v-4c0-0.828,0.671-1.5,1.5-1.5h88.667c0.828,0,1.5,0.672,1.5,1.5
			v4c0,0.828-0.672,1.5-1.5,1.5H596z"/>
		<path fill="#093747" d="M684.667,459.333v4H596v-4H684.667 M684.667,456.333H596c-1.657,0-3,1.343-3,3v4c0,1.657,1.343,3,3,3
			h88.667c1.657,0,3-1.343,3-3v-4C687.667,457.676,686.324,456.333,684.667,456.333L684.667,456.333z"/>
	</g>
	<polygon fill="#206099" points="605.295,417.876 674.333,417.876 674.333,433.5 605.295,425.688 	"/>
	<path fill="#B3D8E8" stroke="#226A89" stroke-width="3" stroke-miterlimit="10" d="M792.876,204.124c0-6.627-5.372-12-12-12
		H499.124c-6.627,0-12,5.373-12,12v201.752c0,6.627,5.373,12,12,12h281.752c6.628,0,12-5.373,12-12V204.124z"/>
	<g>
		<path fill="#1E2123" d="M499.116,377.659c-0.829,0-1.5-0.672-1.5-1.5V204.841c0-0.829,0.671-1.5,1.5-1.5h281.396
			c0.828,0,1.5,0.671,1.5,1.5v171.318c0,0.828-0.672,1.5-1.5,1.5H499.116z"/>
		<path d="M780.512,204.841v171.318H499.116V204.841H780.512 M780.512,201.841H499.116c-1.657,0-3,1.343-3,3v171.318
			c0,1.657,1.343,3,3,3h281.396c1.657,0,3-1.343,3-3V204.841C783.512,203.185,782.169,201.841,780.512,201.841L780.512,201.841z"/>
	</g>
	<circle fill="#112A33" stroke="#226A89" stroke-width="3" stroke-miterlimit="10" cx="776" cy="397.419" r="5.314"/>
	<circle cx="640.5" cy="198.333" r="2.167"/>
	<circle fill="#112A33" stroke="#226A89" stroke-width="3" stroke-miterlimit="10" cx="760" cy="397.419" r="5.314"/>
	<polyline fill="#4D4D4D" points="638.333,204.841 710.334,376.159 780.512,376.159 780.512,204.841 638.333,204.841 	"/>
</g>
<g id="Mouse">
	<circle id="Button_1_" fill="#FFFFFF" cx="801.638" cy="497.126" r="3.405"/>
	
		<path id="Body_1_" fill="#29ABE2" stroke="#0B4154" stroke-width="3" stroke-linecap="round" stroke-linejoin="round" stroke-miterlimit="10" d="
		M782.799,517.946c0,0,29.784,0,37.389,0c7.604,0,9.414-11.588,0-16.296c-9.416-4.707-29.149-4.707-37.389,0
		C774.561,506.358,774.743,517.946,782.799,517.946z"/>
</g>
<g id="Keyboard">
	<g>
		<path fill="#29ABE2" d="M461.69,514.313c-0.563,0-1.079-0.315-1.336-0.817c-0.256-0.502-0.21-1.104,0.12-1.562l22.771-31.5
			c0.282-0.39,0.734-0.621,1.216-0.621h232.077c0.481,0,0.934,0.231,1.216,0.621l22.771,31.5c0.33,0.457,0.376,1.06,0.12,1.562
			c-0.257,0.502-0.772,0.817-1.336,0.817H461.69z"/>
		<path fill="#0A3442" d="M716.538,481.313l22.771,31.5H461.69l22.771-31.5H716.538 M716.538,478.313H484.461
			c-0.963,0-1.867,0.462-2.431,1.242l-22.771,31.5c-0.66,0.913-0.753,2.119-0.24,3.123c0.513,1.003,1.544,1.635,2.671,1.635H739.31
			c1.127,0,2.158-0.632,2.671-1.635c0.514-1.004,0.421-2.21-0.239-3.123l-22.771-31.5
			C718.405,478.774,717.501,478.313,716.538,478.313L716.538,478.313z"/>
	</g>
	<g>
		<path fill="#29ABE2" d="M461.69,518c-0.829,0-1.5-0.672-1.5-1.5v-3.688c0-0.828,0.671-1.5,1.5-1.5H739.31
			c0.828,0,1.5,0.672,1.5,1.5v3.688c0,0.828-0.672,1.5-1.5,1.5H461.69z"/>
		<path fill="#0A3442" d="M739.31,512.813v3.688H461.69v-3.688H739.31 M739.31,509.813H461.69c-1.657,0-3,1.343-3,3v3.688
			c0,1.657,1.343,3,3,3H739.31c1.657,0,3-1.343,3-3v-3.688C742.31,511.155,740.967,509.813,739.31,509.813L739.31,509.813z"/>
	</g>
	<polygon fill="#C5E8FF" stroke="#B3B3B3" stroke-linecap="round" stroke-linejoin="round" stroke-miterlimit="10" points="
		486.333,484 620.5,484 620.5,507.334 469.667,507.334 	"/>
	<polygon fill="#C5E8FF" stroke="#B3B3B3" stroke-linecap="round" stroke-linejoin="round" stroke-miterlimit="10" points="625,484 
		625,493.334 664.667,493.334 660.334,484 	"/>
	<polygon fill="#C5E8FF" stroke="#B3B3B3" stroke-linecap="round" stroke-linejoin="round" stroke-miterlimit="10" points="
		625,500.468 625,507.334 669.334,507.334 666.667,500.462 652,500.468 650.625,495.667 639.75,495.667 640,500.462 	"/>
	<polygon fill="#C5E8FF" stroke="#B3B3B3" stroke-linecap="round" stroke-linejoin="round" stroke-miterlimit="10" points="
		664.667,484 675.25,507.334 730.5,507.334 713.75,484 	"/>
</g>
</svg>
